<?xml version="1.0" encoding="iso-8859-1"?>
<!-- Generator: Adobe Illustrator 18.0.0, SVG Export Plug-In . SVG Version: 6.00 Build 0)  -->
<!DOCTYPE svg PUBLIC "-//W3C//DTD SVG 1.1//EN" "http://www.w3.org/Graphics/SVG/1.1/DTD/svg11.dtd">
<svg version="1.1" id="Capa_1" xmlns="http://www.w3.org/2000/svg" xmlns:xlink="http://www.w3.org/1999/xlink" x="0px" y="0px"
	 viewBox="0 0 91.823 91.823" style="enable-background:new 0 0 91.823 91.823;" xml:space="preserve">
<g>
	<path style="fill-rule:evenodd;clip-rule:evenodd;fill:#497193;" d="M45.912,91.823c25.287,0,45.911-20.624,45.911-45.911
		S71.199,0,45.912,0S0,20.625,0,45.912S20.625,91.823,45.912,91.823z"/>
	<g>
		<path style="fill-rule:evenodd;clip-rule:evenodd;fill:#FBD9BD;" d="M34.189,82.825l-2.178,6.854
			c-5.407-1.716-10.38-4.406-14.714-7.864l1.258-3.957C21.67,68.053,37.142,73.526,34.189,82.825z"/>
		<path style="fill-rule:evenodd;clip-rule:evenodd;fill:#FBD9BD;" d="M57.809,82.825l2.162,6.803
			c5.403-1.736,10.369-4.447,14.693-7.925l-1.221-3.845C70.328,68.053,54.855,73.526,57.809,82.825z"/>
		<path style="fill-rule:evenodd;clip-rule:evenodd;fill:#E72C4F;" d="M23.874,72.63H67.95v13.565
			c-6.542,3.587-14.052,5.627-22.038,5.627c-7.987,0-15.496-2.04-22.038-5.627V72.63z"/>
		<path style="fill-rule:evenodd;clip-rule:evenodd;fill:#FBD9BD;" d="M45.912,39.871L45.912,39.871
			c5.475,0,9.953,4.479,9.953,9.953V72.63c0,5.475-4.479,9.953-9.953,9.953l0,0c-5.475,0-9.953-4.479-9.953-9.953V49.824
			C35.959,44.349,40.438,39.871,45.912,39.871z"/>
		<path style="fill-rule:evenodd;clip-rule:evenodd;fill:#E72C4F;" d="M59.067,82.595l1.931,6.688
			c5.417-1.884,10.371-4.754,14.65-8.395l-0.82-2.842C71.977,68.163,56.362,73.221,59.067,82.595z"/>
		<path style="fill-rule:evenodd;clip-rule:evenodd;fill:#E72C4F;" d="M33.271,82.595l-1.978,6.851
			c-5.425-1.821-10.397-4.628-14.704-8.207l0.921-3.191C20.362,68.163,35.976,73.221,33.271,82.595z"/>
		<path style="fill-rule:evenodd;clip-rule:evenodd;fill:#E72C4F;" d="M35.959,77.89l9.953,4.693l9.953-4.693l5.527,11.255
			c-4.837,1.731-10.048,2.678-15.48,2.678c-5.443,0-10.663-0.949-15.508-2.688L35.959,77.89z"/>
		<polygon style="fill-rule:evenodd;clip-rule:evenodd;fill:#F97D93;" points="35.366,68.876 32.113,72.63 36.117,88.396 
			42.875,80.388 		"/>
		<polygon style="fill-rule:evenodd;clip-rule:evenodd;fill:#F97D93;" points="56.639,68.876 59.892,72.63 55.888,88.396 
			49.131,80.388 		"/>
		<path style="fill-rule:evenodd;clip-rule:evenodd;fill:#BC1837;" d="M49.896,81.293c-1.216,0.781-2.474,1.29-3.983,1.29
			l3.219-2.195L49.896,81.293L49.896,81.293z M45.912,82.583l-3.037-2.195l-0.946,1.121C43.05,82.085,44.592,82.583,45.912,82.583z"
			/>
		<path style="fill-rule:evenodd;clip-rule:evenodd;fill:#ECC2A0;" d="M55.73,55v15.008c-3.716,2.709-7.297,4.227-9.818,4.227
			c-2.522,0-6.104-1.518-9.819-4.226V55C36.093,42.896,55.73,42.896,55.73,55z"/>
		<path style="fill-rule:evenodd;clip-rule:evenodd;fill:#FBD9BD;" d="M45.912,14.754c-32.957,0-21.104,39.822-18.952,42.991
			c2.374,3.496,13.627,12.762,18.952,12.762c5.324,0,16.577-9.266,18.951-12.762C67.017,54.576,78.868,14.754,45.912,14.754z"/>
		<path style="fill-rule:evenodd;clip-rule:evenodd;fill:#ECC2A0;" d="M54.689,58.39c-7.727,0.355-15.367-2.49-20.039-6.709
			C34.941,58.076,49.661,63.054,54.689,58.39z"/>
		<path style="fill-rule:evenodd;clip-rule:evenodd;fill:#ECC2A0;" d="M36.682,51.126c-1.611,0.625-2.915,1.897-3.488,3.182
			C32.816,52.56,35.384,50.185,36.682,51.126z"/>
		
			<ellipse transform="matrix(-0.3129 -0.9498 0.9498 -0.3129 -14.6291 82.0619)" style="fill-rule:evenodd;clip-rule:evenodd;fill:#FBD9BD;" cx="22.37" cy="46.323" rx="5.701" ry="3.298"/>
		
			<ellipse transform="matrix(0.3129 -0.9498 0.9498 0.3129 3.6673 97.7146)" style="fill-rule:evenodd;clip-rule:evenodd;fill:#FBD9BD;" cx="69.367" cy="46.323" rx="5.701" ry="3.298"/>
		<path style="fill-rule:evenodd;clip-rule:evenodd;fill:#E19C26;" d="M30.848,28.081c-1.911,10.444-6.699,9.47-6.319,21.726
			c-1.538-9.553-3.834-22.264,2.66-30.637c5.19-6.691,22.376-11.477,33.506-3.449c12.292,2.627,8.448,27.653,6.8,32.383
			c-1.15-7.661-3.728-10.854-6.981-19.861C56.098,31.408,36.508,32.114,30.848,28.081z"/>
		<path style="opacity:0.2;fill-rule:evenodd;clip-rule:evenodd;" d="M45.892,11.53c5.133-0.132,10.421,1.047,14.78,4.19
			c9.218,1.97,9.361,16.533,8.161,25.691c0.766-0.537,1.571-0.742,2.295-0.504c1.729,0.569,2.333,3.455,1.348,6.446
			c-0.984,2.991-3.186,4.954-4.915,4.384c-0.197-0.065-0.38-0.16-0.548-0.282c-0.812,3.269-1.713,5.614-2.172,6.29
			c-1.253,1.845-4.978,5.295-8.998,8.143v4.174l0.773-1.186l3.253,3.754h8.058v0.043c2.992,0.09,5.818,1.698,6.879,5.374
			l0.824,2.856c-8.009,6.809-18.384,10.919-29.719,10.919h-0.02V11.53z"/>
	</g>
</g>
<g>
</g>
<g>
</g>
<g>
</g>
<g>
</g>
<g>
</g>
<g>
</g>
<g>
</g>
<g>
</g>
<g>
</g>
<g>
</g>
<g>
</g>
<g>
</g>
<g>
</g>
<g>
</g>
<g>
</g>
</svg>
